<svg xmlns="http://www.w3.org/2000/svg" version="1.0" viewBox="0 0 384 480" preserveAspectRatio="xMidYMid meet" x="0px" y="0px"><metadata>
Created by potrace 1.16, written by Peter Selinger 2001-2019
</metadata><g transform="translate(0.000000,384.000000) scale(0.100000,-0.100000)" fill="#000000" stroke="none"><path d="M0 1920 l0 -1920 1920 0 1920 0 0 1920 0 1920 -1920 0 -1920 0 0 -1920z m2538 854 c325 -203 592 -372 592 -375 0 -9 -1193 -694 -1210 -694 -17 0 -1210 685 -1210 694 0 3 269 174 598 379 403 252 604 372 618 369 11 -2 287 -170 612 -373z m272 -1288 l0 -294 -445 -257 -445 -257 -440 254 -440 253 0 293 c0 160 2 292 5 292 3 0 201 -113 440 -251 l435 -251 442 256 c244 140 444 256 446 256 1 0 2 -132 2 -294z"/></g><text x="0" y="399" fill="#000000" font-size="5px" font-weight="bold" font-family="'Helvetica Neue', Helvetica, Arial-Unicode, Arial, Sans-serif">Created by iconeu</text><text x="0" y="404" fill="#000000" font-size="5px" font-weight="bold" font-family="'Helvetica Neue', Helvetica, Arial-Unicode, Arial, Sans-serif">from the Noun Project</text></svg>